<mxfile host="app.diagrams.net" agent="Mozilla/5.0 (Windows NT 10.0; Win64; x64) AppleWebKit/537.36 (KHTML, like Gecko) Chrome/131.0.0.0 Safari/537.36" version="24.9.3">
  <diagram id="C5RBs43oDa-KdzZeNtuy" name="Page-1">
    <mxGraphModel dx="1183" dy="1411" grid="1" gridSize="10" guides="1" tooltips="1" connect="1" arrows="1" fold="1" page="1" pageScale="1" pageWidth="827" pageHeight="1169" math="0" shadow="0">
      <root>
        <mxCell id="WIyWlLk6GJQsqaUBKTNV-0" />
        <mxCell id="WIyWlLk6GJQsqaUBKTNV-1" parent="WIyWlLk6GJQsqaUBKTNV-0" />
        <mxCell id="22gZ5Fdk7y25cB7nW1cR-91" style="edgeStyle=orthogonalEdgeStyle;rounded=0;orthogonalLoop=1;jettySize=auto;html=1;exitX=0.5;exitY=1;exitDx=0;exitDy=0;exitPerimeter=0;entryX=0.5;entryY=0;entryDx=0;entryDy=0;" parent="WIyWlLk6GJQsqaUBKTNV-1" source="22gZ5Fdk7y25cB7nW1cR-31" target="22gZ5Fdk7y25cB7nW1cR-37" edge="1">
          <mxGeometry relative="1" as="geometry" />
        </mxCell>
        <mxCell id="22gZ5Fdk7y25cB7nW1cR-31" value="NEW GAME" style="strokeWidth=2;html=1;shape=mxgraph.flowchart.start_1;whiteSpace=wrap;fontSize=10;" parent="WIyWlLk6GJQsqaUBKTNV-1" vertex="1">
          <mxGeometry x="376" y="161" width="76" height="40" as="geometry" />
        </mxCell>
        <mxCell id="22gZ5Fdk7y25cB7nW1cR-32" value="EXIT" style="strokeWidth=2;html=1;shape=mxgraph.flowchart.start_1;whiteSpace=wrap;fontSize=10;" parent="WIyWlLk6GJQsqaUBKTNV-1" vertex="1">
          <mxGeometry x="80" y="161" width="76" height="40" as="geometry" />
        </mxCell>
        <mxCell id="22gZ5Fdk7y25cB7nW1cR-77" style="edgeStyle=orthogonalEdgeStyle;rounded=0;orthogonalLoop=1;jettySize=auto;html=1;exitX=0.5;exitY=1;exitDx=0;exitDy=0;exitPerimeter=0;entryX=0.5;entryY=0;entryDx=0;entryDy=0;" parent="WIyWlLk6GJQsqaUBKTNV-1" source="22gZ5Fdk7y25cB7nW1cR-33" target="22gZ5Fdk7y25cB7nW1cR-35" edge="1">
          <mxGeometry relative="1" as="geometry" />
        </mxCell>
        <mxCell id="22gZ5Fdk7y25cB7nW1cR-33" value="VIEW RULES" style="strokeWidth=2;html=1;shape=mxgraph.flowchart.start_1;whiteSpace=wrap;fontSize=10;" parent="WIyWlLk6GJQsqaUBKTNV-1" vertex="1">
          <mxGeometry x="668" y="161" width="76" height="40" as="geometry" />
        </mxCell>
        <mxCell id="22gZ5Fdk7y25cB7nW1cR-34" value="EXIT&lt;div&gt;PROGRAM&lt;/div&gt;" style="strokeWidth=2;html=1;shape=mxgraph.flowchart.terminator;whiteSpace=wrap;fontSize=10;" parent="WIyWlLk6GJQsqaUBKTNV-1" vertex="1">
          <mxGeometry x="78" y="240" width="80" height="40" as="geometry" />
        </mxCell>
        <mxCell id="22gZ5Fdk7y25cB7nW1cR-35" value="Show Rules" style="rounded=1;whiteSpace=wrap;html=1;absoluteArcSize=1;arcSize=14;strokeWidth=2;fontSize=10;" parent="WIyWlLk6GJQsqaUBKTNV-1" vertex="1">
          <mxGeometry x="666" y="240" width="80" height="40" as="geometry" />
        </mxCell>
        <mxCell id="22gZ5Fdk7y25cB7nW1cR-93" style="edgeStyle=orthogonalEdgeStyle;rounded=0;orthogonalLoop=1;jettySize=auto;html=1;exitX=0.5;exitY=1;exitDx=0;exitDy=0;entryX=0.5;entryY=0;entryDx=0;entryDy=0;" parent="WIyWlLk6GJQsqaUBKTNV-1" source="22gZ5Fdk7y25cB7nW1cR-37" target="22gZ5Fdk7y25cB7nW1cR-38" edge="1">
          <mxGeometry relative="1" as="geometry">
            <Array as="points">
              <mxPoint x="414" y="290" />
              <mxPoint x="414" y="290" />
            </Array>
          </mxGeometry>
        </mxCell>
        <mxCell id="22gZ5Fdk7y25cB7nW1cR-37" value="Initialize chips, shuffle cards, assign blinds" style="rounded=1;whiteSpace=wrap;html=1;absoluteArcSize=1;arcSize=14;strokeWidth=2;fontSize=10;" parent="WIyWlLk6GJQsqaUBKTNV-1" vertex="1">
          <mxGeometry x="374" y="231" width="80" height="40" as="geometry" />
        </mxCell>
        <mxCell id="22gZ5Fdk7y25cB7nW1cR-38" value="Deal two cards to each player" style="rounded=1;whiteSpace=wrap;html=1;absoluteArcSize=1;arcSize=14;strokeWidth=2;fontSize=10;" parent="WIyWlLk6GJQsqaUBKTNV-1" vertex="1">
          <mxGeometry x="374" y="301" width="80" height="40" as="geometry" />
        </mxCell>
        <mxCell id="22gZ5Fdk7y25cB7nW1cR-97" style="edgeStyle=orthogonalEdgeStyle;rounded=0;orthogonalLoop=1;jettySize=auto;html=1;exitX=1;exitY=0.5;exitDx=0;exitDy=0;exitPerimeter=0;" parent="WIyWlLk6GJQsqaUBKTNV-1" source="22gZ5Fdk7y25cB7nW1cR-41" edge="1">
          <mxGeometry relative="1" as="geometry">
            <mxPoint x="540" y="450" as="targetPoint" />
          </mxGeometry>
        </mxCell>
        <mxCell id="22gZ5Fdk7y25cB7nW1cR-101" value="YES" style="edgeLabel;html=1;align=center;verticalAlign=middle;resizable=0;points=[];" parent="22gZ5Fdk7y25cB7nW1cR-97" vertex="1" connectable="0">
          <mxGeometry x="0.5902" relative="1" as="geometry">
            <mxPoint as="offset" />
          </mxGeometry>
        </mxCell>
        <mxCell id="22gZ5Fdk7y25cB7nW1cR-99" style="edgeStyle=orthogonalEdgeStyle;rounded=0;orthogonalLoop=1;jettySize=auto;html=1;exitX=0;exitY=0.5;exitDx=0;exitDy=0;exitPerimeter=0;entryX=0.5;entryY=0;entryDx=0;entryDy=0;" parent="WIyWlLk6GJQsqaUBKTNV-1" source="22gZ5Fdk7y25cB7nW1cR-41" target="22gZ5Fdk7y25cB7nW1cR-43" edge="1">
          <mxGeometry relative="1" as="geometry" />
        </mxCell>
        <mxCell id="22gZ5Fdk7y25cB7nW1cR-100" value="NO" style="edgeLabel;html=1;align=center;verticalAlign=middle;resizable=0;points=[];" parent="22gZ5Fdk7y25cB7nW1cR-99" vertex="1" connectable="0">
          <mxGeometry x="0.1323" y="1" relative="1" as="geometry">
            <mxPoint as="offset" />
          </mxGeometry>
        </mxCell>
        <mxCell id="22gZ5Fdk7y25cB7nW1cR-41" value="Has the player money" style="strokeWidth=2;html=1;shape=mxgraph.flowchart.decision;whiteSpace=wrap;fontSize=9;fontStyle=5" parent="WIyWlLk6GJQsqaUBKTNV-1" vertex="1">
          <mxGeometry x="356" y="380" width="116" height="50" as="geometry" />
        </mxCell>
        <mxCell id="22gZ5Fdk7y25cB7nW1cR-42" value="Main Menu" style="strokeWidth=2;html=1;shape=mxgraph.flowchart.decision;whiteSpace=wrap;fontSize=10;" parent="WIyWlLk6GJQsqaUBKTNV-1" vertex="1">
          <mxGeometry x="656" y="310" width="100" height="40" as="geometry" />
        </mxCell>
        <mxCell id="22gZ5Fdk7y25cB7nW1cR-43" value="FOLD" style="rounded=1;whiteSpace=wrap;html=1;absoluteArcSize=1;arcSize=14;strokeWidth=2;fontSize=10;" parent="WIyWlLk6GJQsqaUBKTNV-1" vertex="1">
          <mxGeometry x="296" y="450" width="80" height="40" as="geometry" />
        </mxCell>
        <mxCell id="LrwBb2kscuw4VBv3FzU8-2" style="edgeStyle=orthogonalEdgeStyle;rounded=0;orthogonalLoop=1;jettySize=auto;html=1;" edge="1" parent="WIyWlLk6GJQsqaUBKTNV-1" source="22gZ5Fdk7y25cB7nW1cR-44" target="22gZ5Fdk7y25cB7nW1cR-49">
          <mxGeometry relative="1" as="geometry" />
        </mxCell>
        <mxCell id="LrwBb2kscuw4VBv3FzU8-4" value="&lt;font style=&quot;font-size: 10px;&quot;&gt;Increase the bet&lt;/font&gt;" style="edgeLabel;html=1;align=center;verticalAlign=middle;resizable=0;points=[];" vertex="1" connectable="0" parent="LrwBb2kscuw4VBv3FzU8-2">
          <mxGeometry x="-0.0404" y="1" relative="1" as="geometry">
            <mxPoint x="23" y="-16" as="offset" />
          </mxGeometry>
        </mxCell>
        <mxCell id="22gZ5Fdk7y25cB7nW1cR-44" value="RAISE" style="rounded=1;whiteSpace=wrap;html=1;absoluteArcSize=1;arcSize=14;strokeWidth=2;fontSize=10;" parent="WIyWlLk6GJQsqaUBKTNV-1" vertex="1">
          <mxGeometry x="560" y="450" width="80" height="40" as="geometry" />
        </mxCell>
        <mxCell id="LrwBb2kscuw4VBv3FzU8-0" style="edgeStyle=orthogonalEdgeStyle;rounded=0;orthogonalLoop=1;jettySize=auto;html=1;exitX=0.5;exitY=1;exitDx=0;exitDy=0;entryX=0.5;entryY=0;entryDx=0;entryDy=0;" edge="1" parent="WIyWlLk6GJQsqaUBKTNV-1" source="22gZ5Fdk7y25cB7nW1cR-45" target="22gZ5Fdk7y25cB7nW1cR-49">
          <mxGeometry relative="1" as="geometry" />
        </mxCell>
        <mxCell id="LrwBb2kscuw4VBv3FzU8-3" value="&lt;font style=&quot;font-size: 10px;&quot;&gt;Match the bet&lt;/font&gt;" style="edgeLabel;html=1;align=center;verticalAlign=middle;resizable=0;points=[];" vertex="1" connectable="0" parent="LrwBb2kscuw4VBv3FzU8-0">
          <mxGeometry x="-0.0241" y="-1" relative="1" as="geometry">
            <mxPoint x="-30" y="-16" as="offset" />
          </mxGeometry>
        </mxCell>
        <mxCell id="22gZ5Fdk7y25cB7nW1cR-45" value="CALL" style="rounded=1;whiteSpace=wrap;html=1;absoluteArcSize=1;arcSize=14;strokeWidth=2;fontSize=10;" parent="WIyWlLk6GJQsqaUBKTNV-1" vertex="1">
          <mxGeometry x="448" y="450" width="80" height="40" as="geometry" />
        </mxCell>
        <mxCell id="LrwBb2kscuw4VBv3FzU8-24" style="edgeStyle=orthogonalEdgeStyle;rounded=0;orthogonalLoop=1;jettySize=auto;html=1;exitX=0.5;exitY=1;exitDx=0;exitDy=0;" edge="1" parent="WIyWlLk6GJQsqaUBKTNV-1" source="22gZ5Fdk7y25cB7nW1cR-49" target="LrwBb2kscuw4VBv3FzU8-12">
          <mxGeometry relative="1" as="geometry" />
        </mxCell>
        <mxCell id="LrwBb2kscuw4VBv3FzU8-28" value="Player Actions" style="edgeLabel;html=1;align=center;verticalAlign=middle;resizable=0;points=[];" vertex="1" connectable="0" parent="LrwBb2kscuw4VBv3FzU8-24">
          <mxGeometry x="-0.3508" relative="1" as="geometry">
            <mxPoint as="offset" />
          </mxGeometry>
        </mxCell>
        <mxCell id="22gZ5Fdk7y25cB7nW1cR-49" value="Reveal three community cards" style="rounded=1;whiteSpace=wrap;html=1;absoluteArcSize=1;arcSize=14;strokeWidth=2;fontSize=10;" parent="WIyWlLk6GJQsqaUBKTNV-1" vertex="1">
          <mxGeometry x="512" y="561" width="80" height="40" as="geometry" />
        </mxCell>
        <mxCell id="22gZ5Fdk7y25cB7nW1cR-75" style="edgeStyle=orthogonalEdgeStyle;rounded=0;orthogonalLoop=1;jettySize=auto;html=1;exitX=0.5;exitY=1;exitDx=0;exitDy=0;exitPerimeter=0;entryX=0.5;entryY=0;entryDx=0;entryDy=0;entryPerimeter=0;" parent="WIyWlLk6GJQsqaUBKTNV-1" source="22gZ5Fdk7y25cB7nW1cR-32" target="22gZ5Fdk7y25cB7nW1cR-34" edge="1">
          <mxGeometry relative="1" as="geometry" />
        </mxCell>
        <mxCell id="22gZ5Fdk7y25cB7nW1cR-76" value="YES" style="edgeLabel;html=1;align=center;verticalAlign=middle;resizable=0;points=[];" parent="22gZ5Fdk7y25cB7nW1cR-75" vertex="1" connectable="0">
          <mxGeometry x="-0.2292" y="-1" relative="1" as="geometry">
            <mxPoint as="offset" />
          </mxGeometry>
        </mxCell>
        <mxCell id="22gZ5Fdk7y25cB7nW1cR-78" style="edgeStyle=orthogonalEdgeStyle;rounded=0;orthogonalLoop=1;jettySize=auto;html=1;exitX=0.5;exitY=1;exitDx=0;exitDy=0;entryX=0.5;entryY=0;entryDx=0;entryDy=0;entryPerimeter=0;" parent="WIyWlLk6GJQsqaUBKTNV-1" source="22gZ5Fdk7y25cB7nW1cR-35" target="22gZ5Fdk7y25cB7nW1cR-42" edge="1">
          <mxGeometry relative="1" as="geometry" />
        </mxCell>
        <mxCell id="22gZ5Fdk7y25cB7nW1cR-80" value="MAIN&lt;div&gt;MENU&lt;/div&gt;" style="strokeWidth=2;html=1;shape=mxgraph.flowchart.start_2;whiteSpace=wrap;" parent="WIyWlLk6GJQsqaUBKTNV-1" vertex="1">
          <mxGeometry x="380" y="53" width="68" height="60" as="geometry" />
        </mxCell>
        <mxCell id="22gZ5Fdk7y25cB7nW1cR-82" style="edgeStyle=orthogonalEdgeStyle;rounded=0;orthogonalLoop=1;jettySize=auto;html=1;exitX=0;exitY=0.5;exitDx=0;exitDy=0;exitPerimeter=0;entryX=0.5;entryY=0;entryDx=0;entryDy=0;entryPerimeter=0;" parent="WIyWlLk6GJQsqaUBKTNV-1" source="22gZ5Fdk7y25cB7nW1cR-80" target="22gZ5Fdk7y25cB7nW1cR-32" edge="1">
          <mxGeometry relative="1" as="geometry" />
        </mxCell>
        <mxCell id="22gZ5Fdk7y25cB7nW1cR-83" style="edgeStyle=orthogonalEdgeStyle;rounded=0;orthogonalLoop=1;jettySize=auto;html=1;exitX=0.5;exitY=1;exitDx=0;exitDy=0;exitPerimeter=0;entryX=0.5;entryY=0;entryDx=0;entryDy=0;entryPerimeter=0;" parent="WIyWlLk6GJQsqaUBKTNV-1" source="22gZ5Fdk7y25cB7nW1cR-80" target="22gZ5Fdk7y25cB7nW1cR-31" edge="1">
          <mxGeometry relative="1" as="geometry" />
        </mxCell>
        <mxCell id="22gZ5Fdk7y25cB7nW1cR-84" style="edgeStyle=orthogonalEdgeStyle;rounded=0;orthogonalLoop=1;jettySize=auto;html=1;exitX=1;exitY=0.5;exitDx=0;exitDy=0;exitPerimeter=0;entryX=0.5;entryY=0;entryDx=0;entryDy=0;entryPerimeter=0;" parent="WIyWlLk6GJQsqaUBKTNV-1" source="22gZ5Fdk7y25cB7nW1cR-80" target="22gZ5Fdk7y25cB7nW1cR-33" edge="1">
          <mxGeometry relative="1" as="geometry" />
        </mxCell>
        <mxCell id="22gZ5Fdk7y25cB7nW1cR-88" style="edgeStyle=orthogonalEdgeStyle;rounded=0;orthogonalLoop=1;jettySize=auto;html=1;exitX=1;exitY=0.5;exitDx=0;exitDy=0;exitPerimeter=0;entryX=0.5;entryY=0;entryDx=0;entryDy=0;entryPerimeter=0;" parent="WIyWlLk6GJQsqaUBKTNV-1" source="22gZ5Fdk7y25cB7nW1cR-42" target="22gZ5Fdk7y25cB7nW1cR-80" edge="1">
          <mxGeometry relative="1" as="geometry" />
        </mxCell>
        <mxCell id="22gZ5Fdk7y25cB7nW1cR-89" value="YES" style="edgeLabel;html=1;align=center;verticalAlign=middle;resizable=0;points=[];" parent="22gZ5Fdk7y25cB7nW1cR-88" vertex="1" connectable="0">
          <mxGeometry x="-0.9572" relative="1" as="geometry">
            <mxPoint as="offset" />
          </mxGeometry>
        </mxCell>
        <mxCell id="22gZ5Fdk7y25cB7nW1cR-92" value="Setup Game" style="text;html=1;align=center;verticalAlign=middle;whiteSpace=wrap;rounded=0;fontSize=9;fontStyle=3" parent="WIyWlLk6GJQsqaUBKTNV-1" vertex="1">
          <mxGeometry x="280" y="201" width="80" height="30" as="geometry" />
        </mxCell>
        <mxCell id="22gZ5Fdk7y25cB7nW1cR-94" value="Deal Hole Cards" style="text;html=1;align=center;verticalAlign=middle;whiteSpace=wrap;rounded=0;fontSize=9;fontStyle=3" parent="WIyWlLk6GJQsqaUBKTNV-1" vertex="1">
          <mxGeometry x="282" y="280" width="80" height="30" as="geometry" />
        </mxCell>
        <mxCell id="22gZ5Fdk7y25cB7nW1cR-95" style="edgeStyle=orthogonalEdgeStyle;rounded=0;orthogonalLoop=1;jettySize=auto;html=1;exitX=0.5;exitY=1;exitDx=0;exitDy=0;entryX=0.5;entryY=0;entryDx=0;entryDy=0;entryPerimeter=0;" parent="WIyWlLk6GJQsqaUBKTNV-1" source="22gZ5Fdk7y25cB7nW1cR-38" target="22gZ5Fdk7y25cB7nW1cR-41" edge="1">
          <mxGeometry relative="1" as="geometry" />
        </mxCell>
        <mxCell id="22gZ5Fdk7y25cB7nW1cR-96" value="&lt;font style=&quot;font-size: 10px;&quot;&gt;Player Actions&lt;/font&gt;" style="edgeLabel;html=1;align=center;verticalAlign=middle;resizable=0;points=[];" parent="22gZ5Fdk7y25cB7nW1cR-95" vertex="1" connectable="0">
          <mxGeometry x="-0.2552" relative="1" as="geometry">
            <mxPoint as="offset" />
          </mxGeometry>
        </mxCell>
        <mxCell id="LrwBb2kscuw4VBv3FzU8-6" value="Reveal Flop" style="text;html=1;align=center;verticalAlign=middle;whiteSpace=wrap;rounded=0;fontSize=9;fontStyle=3" vertex="1" parent="WIyWlLk6GJQsqaUBKTNV-1">
          <mxGeometry x="402" y="561" width="80" height="30" as="geometry" />
        </mxCell>
        <mxCell id="LrwBb2kscuw4VBv3FzU8-8" style="edgeStyle=orthogonalEdgeStyle;rounded=0;orthogonalLoop=1;jettySize=auto;html=1;exitX=1;exitY=0.5;exitDx=0;exitDy=0;exitPerimeter=0;" edge="1" parent="WIyWlLk6GJQsqaUBKTNV-1" source="LrwBb2kscuw4VBv3FzU8-12">
          <mxGeometry relative="1" as="geometry">
            <mxPoint x="684" y="714.52" as="targetPoint" />
          </mxGeometry>
        </mxCell>
        <mxCell id="LrwBb2kscuw4VBv3FzU8-9" value="YES" style="edgeLabel;html=1;align=center;verticalAlign=middle;resizable=0;points=[];" vertex="1" connectable="0" parent="LrwBb2kscuw4VBv3FzU8-8">
          <mxGeometry x="0.5902" relative="1" as="geometry">
            <mxPoint as="offset" />
          </mxGeometry>
        </mxCell>
        <mxCell id="LrwBb2kscuw4VBv3FzU8-10" style="edgeStyle=orthogonalEdgeStyle;rounded=0;orthogonalLoop=1;jettySize=auto;html=1;exitX=0;exitY=0.5;exitDx=0;exitDy=0;exitPerimeter=0;entryX=0.5;entryY=0;entryDx=0;entryDy=0;" edge="1" parent="WIyWlLk6GJQsqaUBKTNV-1" source="LrwBb2kscuw4VBv3FzU8-12" target="LrwBb2kscuw4VBv3FzU8-13">
          <mxGeometry relative="1" as="geometry" />
        </mxCell>
        <mxCell id="LrwBb2kscuw4VBv3FzU8-11" value="NO" style="edgeLabel;html=1;align=center;verticalAlign=middle;resizable=0;points=[];" vertex="1" connectable="0" parent="LrwBb2kscuw4VBv3FzU8-10">
          <mxGeometry x="0.1323" y="1" relative="1" as="geometry">
            <mxPoint as="offset" />
          </mxGeometry>
        </mxCell>
        <mxCell id="LrwBb2kscuw4VBv3FzU8-12" value="Has the player money" style="strokeWidth=2;html=1;shape=mxgraph.flowchart.decision;whiteSpace=wrap;fontSize=9;fontStyle=5" vertex="1" parent="WIyWlLk6GJQsqaUBKTNV-1">
          <mxGeometry x="494" y="640" width="116" height="50" as="geometry" />
        </mxCell>
        <mxCell id="LrwBb2kscuw4VBv3FzU8-13" value="FOLD" style="rounded=1;whiteSpace=wrap;html=1;absoluteArcSize=1;arcSize=14;strokeWidth=2;fontSize=10;" vertex="1" parent="WIyWlLk6GJQsqaUBKTNV-1">
          <mxGeometry x="436" y="714.52" width="80" height="40" as="geometry" />
        </mxCell>
        <mxCell id="LrwBb2kscuw4VBv3FzU8-14" style="edgeStyle=orthogonalEdgeStyle;rounded=0;orthogonalLoop=1;jettySize=auto;html=1;" edge="1" parent="WIyWlLk6GJQsqaUBKTNV-1" source="LrwBb2kscuw4VBv3FzU8-16" target="LrwBb2kscuw4VBv3FzU8-20">
          <mxGeometry relative="1" as="geometry" />
        </mxCell>
        <mxCell id="LrwBb2kscuw4VBv3FzU8-15" value="&lt;font style=&quot;font-size: 10px;&quot;&gt;Increase the bet&lt;/font&gt;" style="edgeLabel;html=1;align=center;verticalAlign=middle;resizable=0;points=[];" vertex="1" connectable="0" parent="LrwBb2kscuw4VBv3FzU8-14">
          <mxGeometry x="-0.0404" y="1" relative="1" as="geometry">
            <mxPoint x="23" y="-16" as="offset" />
          </mxGeometry>
        </mxCell>
        <mxCell id="LrwBb2kscuw4VBv3FzU8-16" value="RAISE" style="rounded=1;whiteSpace=wrap;html=1;absoluteArcSize=1;arcSize=14;strokeWidth=2;fontSize=10;" vertex="1" parent="WIyWlLk6GJQsqaUBKTNV-1">
          <mxGeometry x="704" y="714.52" width="80" height="40" as="geometry" />
        </mxCell>
        <mxCell id="LrwBb2kscuw4VBv3FzU8-17" style="edgeStyle=orthogonalEdgeStyle;rounded=0;orthogonalLoop=1;jettySize=auto;html=1;exitX=0.5;exitY=1;exitDx=0;exitDy=0;entryX=0.5;entryY=0;entryDx=0;entryDy=0;" edge="1" parent="WIyWlLk6GJQsqaUBKTNV-1" source="LrwBb2kscuw4VBv3FzU8-19" target="LrwBb2kscuw4VBv3FzU8-20">
          <mxGeometry relative="1" as="geometry" />
        </mxCell>
        <mxCell id="LrwBb2kscuw4VBv3FzU8-18" value="&lt;font style=&quot;font-size: 10px;&quot;&gt;Match the bet&lt;/font&gt;" style="edgeLabel;html=1;align=center;verticalAlign=middle;resizable=0;points=[];" vertex="1" connectable="0" parent="LrwBb2kscuw4VBv3FzU8-17">
          <mxGeometry x="-0.0241" y="-1" relative="1" as="geometry">
            <mxPoint x="-30" y="-16" as="offset" />
          </mxGeometry>
        </mxCell>
        <mxCell id="LrwBb2kscuw4VBv3FzU8-19" value="CALL" style="rounded=1;whiteSpace=wrap;html=1;absoluteArcSize=1;arcSize=14;strokeWidth=2;fontSize=10;" vertex="1" parent="WIyWlLk6GJQsqaUBKTNV-1">
          <mxGeometry x="592" y="714.52" width="80" height="40" as="geometry" />
        </mxCell>
        <mxCell id="LrwBb2kscuw4VBv3FzU8-20" value="Reveal 4th community card" style="rounded=1;whiteSpace=wrap;html=1;absoluteArcSize=1;arcSize=14;strokeWidth=2;fontSize=10;" vertex="1" parent="WIyWlLk6GJQsqaUBKTNV-1">
          <mxGeometry x="654" y="825.52" width="80" height="40" as="geometry" />
        </mxCell>
        <mxCell id="LrwBb2kscuw4VBv3FzU8-25" value="Reveal Turn" style="text;html=1;align=center;verticalAlign=middle;whiteSpace=wrap;rounded=0;fontSize=9;fontStyle=3" vertex="1" parent="WIyWlLk6GJQsqaUBKTNV-1">
          <mxGeometry x="550" y="822.52" width="80" height="30" as="geometry" />
        </mxCell>
        <mxCell id="LrwBb2kscuw4VBv3FzU8-29" value="Pre-Flop Betting Round&amp;nbsp;" style="text;html=1;align=center;verticalAlign=middle;whiteSpace=wrap;rounded=0;fontSize=9;fontStyle=3" vertex="1" parent="WIyWlLk6GJQsqaUBKTNV-1">
          <mxGeometry x="280" y="359" width="80" height="30" as="geometry" />
        </mxCell>
        <mxCell id="LrwBb2kscuw4VBv3FzU8-30" value="Flop Betting Round&amp;nbsp;" style="text;html=1;align=center;verticalAlign=middle;whiteSpace=wrap;rounded=0;fontSize=9;fontStyle=3" vertex="1" parent="WIyWlLk6GJQsqaUBKTNV-1">
          <mxGeometry x="402" y="620" width="80" height="30" as="geometry" />
        </mxCell>
        <mxCell id="LrwBb2kscuw4VBv3FzU8-48" style="edgeStyle=orthogonalEdgeStyle;rounded=0;orthogonalLoop=1;jettySize=auto;html=1;exitX=1;exitY=0.5;exitDx=0;exitDy=0;exitPerimeter=0;" edge="1" parent="WIyWlLk6GJQsqaUBKTNV-1" source="LrwBb2kscuw4VBv3FzU8-35" target="LrwBb2kscuw4VBv3FzU8-42">
          <mxGeometry relative="1" as="geometry" />
        </mxCell>
        <mxCell id="LrwBb2kscuw4VBv3FzU8-49" value="NO" style="edgeLabel;html=1;align=center;verticalAlign=middle;resizable=0;points=[];" vertex="1" connectable="0" parent="LrwBb2kscuw4VBv3FzU8-48">
          <mxGeometry x="0.178" y="2" relative="1" as="geometry">
            <mxPoint as="offset" />
          </mxGeometry>
        </mxCell>
        <mxCell id="LrwBb2kscuw4VBv3FzU8-57" style="edgeStyle=orthogonalEdgeStyle;rounded=0;orthogonalLoop=1;jettySize=auto;html=1;exitX=0;exitY=0.5;exitDx=0;exitDy=0;exitPerimeter=0;" edge="1" parent="WIyWlLk6GJQsqaUBKTNV-1" source="LrwBb2kscuw4VBv3FzU8-35">
          <mxGeometry relative="1" as="geometry">
            <mxPoint x="560" y="990" as="targetPoint" />
          </mxGeometry>
        </mxCell>
        <mxCell id="LrwBb2kscuw4VBv3FzU8-58" value="YES" style="edgeLabel;html=1;align=center;verticalAlign=middle;resizable=0;points=[];" vertex="1" connectable="0" parent="LrwBb2kscuw4VBv3FzU8-57">
          <mxGeometry x="0.6023" relative="1" as="geometry">
            <mxPoint as="offset" />
          </mxGeometry>
        </mxCell>
        <mxCell id="LrwBb2kscuw4VBv3FzU8-35" value="Has the player money" style="strokeWidth=2;html=1;shape=mxgraph.flowchart.decision;whiteSpace=wrap;fontSize=9;fontStyle=5" vertex="1" parent="WIyWlLk6GJQsqaUBKTNV-1">
          <mxGeometry x="636" y="910" width="116" height="50" as="geometry" />
        </mxCell>
        <mxCell id="LrwBb2kscuw4VBv3FzU8-54" style="edgeStyle=orthogonalEdgeStyle;rounded=0;orthogonalLoop=1;jettySize=auto;html=1;exitX=0.5;exitY=1;exitDx=0;exitDy=0;entryX=0.5;entryY=0;entryDx=0;entryDy=0;" edge="1" parent="WIyWlLk6GJQsqaUBKTNV-1" source="LrwBb2kscuw4VBv3FzU8-36" target="LrwBb2kscuw4VBv3FzU8-51">
          <mxGeometry relative="1" as="geometry" />
        </mxCell>
        <mxCell id="LrwBb2kscuw4VBv3FzU8-56" value="&lt;span style=&quot;font-size: 10px;&quot;&gt;Increase the bet&lt;/span&gt;" style="edgeLabel;html=1;align=center;verticalAlign=middle;resizable=0;points=[];" vertex="1" connectable="0" parent="LrwBb2kscuw4VBv3FzU8-54">
          <mxGeometry x="-0.6767" y="1" relative="1" as="geometry">
            <mxPoint as="offset" />
          </mxGeometry>
        </mxCell>
        <mxCell id="LrwBb2kscuw4VBv3FzU8-36" value="RAISE" style="rounded=1;whiteSpace=wrap;html=1;absoluteArcSize=1;arcSize=14;strokeWidth=2;fontSize=10;" vertex="1" parent="WIyWlLk6GJQsqaUBKTNV-1">
          <mxGeometry x="580" y="984.52" width="80" height="40" as="geometry" />
        </mxCell>
        <mxCell id="LrwBb2kscuw4VBv3FzU8-39" value="RAISE" style="rounded=1;whiteSpace=wrap;html=1;absoluteArcSize=1;arcSize=14;strokeWidth=2;fontSize=10;" vertex="1" parent="WIyWlLk6GJQsqaUBKTNV-1">
          <mxGeometry x="848" y="984.52" width="80" height="40" as="geometry" />
        </mxCell>
        <mxCell id="LrwBb2kscuw4VBv3FzU8-42" value="FOLD" style="rounded=1;whiteSpace=wrap;html=1;absoluteArcSize=1;arcSize=14;strokeWidth=2;fontSize=10;" vertex="1" parent="WIyWlLk6GJQsqaUBKTNV-1">
          <mxGeometry x="736" y="984.52" width="80" height="40" as="geometry" />
        </mxCell>
        <mxCell id="LrwBb2kscuw4VBv3FzU8-45" value="Reveal River" style="text;html=1;align=center;verticalAlign=middle;whiteSpace=wrap;rounded=0;fontSize=9;fontStyle=3" vertex="1" parent="WIyWlLk6GJQsqaUBKTNV-1">
          <mxGeometry x="414" y="1080" width="80" height="30" as="geometry" />
        </mxCell>
        <mxCell id="LrwBb2kscuw4VBv3FzU8-46" style="edgeStyle=orthogonalEdgeStyle;rounded=0;orthogonalLoop=1;jettySize=auto;html=1;exitX=0.5;exitY=1;exitDx=0;exitDy=0;entryX=0.5;entryY=0;entryDx=0;entryDy=0;entryPerimeter=0;" edge="1" parent="WIyWlLk6GJQsqaUBKTNV-1" source="LrwBb2kscuw4VBv3FzU8-20" target="LrwBb2kscuw4VBv3FzU8-35">
          <mxGeometry relative="1" as="geometry" />
        </mxCell>
        <mxCell id="LrwBb2kscuw4VBv3FzU8-47" value="Player Actions" style="edgeLabel;html=1;align=center;verticalAlign=middle;resizable=0;points=[];" vertex="1" connectable="0" parent="LrwBb2kscuw4VBv3FzU8-46">
          <mxGeometry x="0.0102" y="-1" relative="1" as="geometry">
            <mxPoint as="offset" />
          </mxGeometry>
        </mxCell>
        <mxCell id="LrwBb2kscuw4VBv3FzU8-52" style="edgeStyle=orthogonalEdgeStyle;rounded=0;orthogonalLoop=1;jettySize=auto;html=1;entryX=0.5;entryY=0;entryDx=0;entryDy=0;" edge="1" parent="WIyWlLk6GJQsqaUBKTNV-1" source="LrwBb2kscuw4VBv3FzU8-50" target="LrwBb2kscuw4VBv3FzU8-51">
          <mxGeometry relative="1" as="geometry" />
        </mxCell>
        <mxCell id="LrwBb2kscuw4VBv3FzU8-55" value="&lt;span style=&quot;font-size: 10px;&quot;&gt;Match the bet&lt;/span&gt;" style="edgeLabel;html=1;align=center;verticalAlign=middle;resizable=0;points=[];" vertex="1" connectable="0" parent="LrwBb2kscuw4VBv3FzU8-52">
          <mxGeometry x="-0.7174" y="-1" relative="1" as="geometry">
            <mxPoint as="offset" />
          </mxGeometry>
        </mxCell>
        <mxCell id="LrwBb2kscuw4VBv3FzU8-50" value="CALL" style="rounded=1;whiteSpace=wrap;html=1;absoluteArcSize=1;arcSize=14;strokeWidth=2;fontSize=10;" vertex="1" parent="WIyWlLk6GJQsqaUBKTNV-1">
          <mxGeometry x="472" y="984.52" width="80" height="40" as="geometry" />
        </mxCell>
        <mxCell id="LrwBb2kscuw4VBv3FzU8-51" value="Reveal 5th community card" style="rounded=1;whiteSpace=wrap;html=1;absoluteArcSize=1;arcSize=14;strokeWidth=2;fontSize=10;" vertex="1" parent="WIyWlLk6GJQsqaUBKTNV-1">
          <mxGeometry x="528" y="1080" width="80" height="40" as="geometry" />
        </mxCell>
        <mxCell id="LrwBb2kscuw4VBv3FzU8-59" value="Turn Betting Round" style="text;html=1;align=center;verticalAlign=middle;whiteSpace=wrap;rounded=0;fontSize=9;fontStyle=3" vertex="1" parent="WIyWlLk6GJQsqaUBKTNV-1">
          <mxGeometry x="550" y="890" width="80" height="30" as="geometry" />
        </mxCell>
        <mxCell id="LrwBb2kscuw4VBv3FzU8-61" style="edgeStyle=orthogonalEdgeStyle;rounded=0;orthogonalLoop=1;jettySize=auto;html=1;exitX=1;exitY=0.5;exitDx=0;exitDy=0;exitPerimeter=0;" edge="1" parent="WIyWlLk6GJQsqaUBKTNV-1" source="LrwBb2kscuw4VBv3FzU8-65">
          <mxGeometry relative="1" as="geometry">
            <mxPoint x="700" y="1230.58" as="targetPoint" />
          </mxGeometry>
        </mxCell>
        <mxCell id="LrwBb2kscuw4VBv3FzU8-62" value="YES" style="edgeLabel;html=1;align=center;verticalAlign=middle;resizable=0;points=[];" vertex="1" connectable="0" parent="LrwBb2kscuw4VBv3FzU8-61">
          <mxGeometry x="0.5902" relative="1" as="geometry">
            <mxPoint as="offset" />
          </mxGeometry>
        </mxCell>
        <mxCell id="LrwBb2kscuw4VBv3FzU8-63" style="edgeStyle=orthogonalEdgeStyle;rounded=0;orthogonalLoop=1;jettySize=auto;html=1;exitX=0;exitY=0.5;exitDx=0;exitDy=0;exitPerimeter=0;entryX=0.5;entryY=0;entryDx=0;entryDy=0;" edge="1" parent="WIyWlLk6GJQsqaUBKTNV-1" source="LrwBb2kscuw4VBv3FzU8-65" target="LrwBb2kscuw4VBv3FzU8-66">
          <mxGeometry relative="1" as="geometry" />
        </mxCell>
        <mxCell id="LrwBb2kscuw4VBv3FzU8-64" value="NO" style="edgeLabel;html=1;align=center;verticalAlign=middle;resizable=0;points=[];" vertex="1" connectable="0" parent="LrwBb2kscuw4VBv3FzU8-63">
          <mxGeometry x="0.1323" y="1" relative="1" as="geometry">
            <mxPoint as="offset" />
          </mxGeometry>
        </mxCell>
        <mxCell id="LrwBb2kscuw4VBv3FzU8-65" value="Has the player money" style="strokeWidth=2;html=1;shape=mxgraph.flowchart.decision;whiteSpace=wrap;fontSize=9;fontStyle=5" vertex="1" parent="WIyWlLk6GJQsqaUBKTNV-1">
          <mxGeometry x="510" y="1156.06" width="116" height="50" as="geometry" />
        </mxCell>
        <mxCell id="LrwBb2kscuw4VBv3FzU8-66" value="FOLD" style="rounded=1;whiteSpace=wrap;html=1;absoluteArcSize=1;arcSize=14;strokeWidth=2;fontSize=10;" vertex="1" parent="WIyWlLk6GJQsqaUBKTNV-1">
          <mxGeometry x="452" y="1230.58" width="80" height="40" as="geometry" />
        </mxCell>
        <mxCell id="LrwBb2kscuw4VBv3FzU8-67" style="edgeStyle=orthogonalEdgeStyle;rounded=0;orthogonalLoop=1;jettySize=auto;html=1;" edge="1" parent="WIyWlLk6GJQsqaUBKTNV-1" source="LrwBb2kscuw4VBv3FzU8-69" target="LrwBb2kscuw4VBv3FzU8-73">
          <mxGeometry relative="1" as="geometry" />
        </mxCell>
        <mxCell id="LrwBb2kscuw4VBv3FzU8-68" value="&lt;font style=&quot;font-size: 10px;&quot;&gt;Increase the bet&lt;/font&gt;" style="edgeLabel;html=1;align=center;verticalAlign=middle;resizable=0;points=[];" vertex="1" connectable="0" parent="LrwBb2kscuw4VBv3FzU8-67">
          <mxGeometry x="-0.0404" y="1" relative="1" as="geometry">
            <mxPoint x="23" y="-16" as="offset" />
          </mxGeometry>
        </mxCell>
        <mxCell id="LrwBb2kscuw4VBv3FzU8-69" value="RAISE" style="rounded=1;whiteSpace=wrap;html=1;absoluteArcSize=1;arcSize=14;strokeWidth=2;fontSize=10;" vertex="1" parent="WIyWlLk6GJQsqaUBKTNV-1">
          <mxGeometry x="720" y="1230.58" width="80" height="40" as="geometry" />
        </mxCell>
        <mxCell id="LrwBb2kscuw4VBv3FzU8-70" style="edgeStyle=orthogonalEdgeStyle;rounded=0;orthogonalLoop=1;jettySize=auto;html=1;exitX=0.5;exitY=1;exitDx=0;exitDy=0;entryX=0.5;entryY=0;entryDx=0;entryDy=0;" edge="1" parent="WIyWlLk6GJQsqaUBKTNV-1" source="LrwBb2kscuw4VBv3FzU8-72" target="LrwBb2kscuw4VBv3FzU8-73">
          <mxGeometry relative="1" as="geometry" />
        </mxCell>
        <mxCell id="LrwBb2kscuw4VBv3FzU8-71" value="&lt;font style=&quot;font-size: 10px;&quot;&gt;Match the bet&lt;/font&gt;" style="edgeLabel;html=1;align=center;verticalAlign=middle;resizable=0;points=[];" vertex="1" connectable="0" parent="LrwBb2kscuw4VBv3FzU8-70">
          <mxGeometry x="-0.0241" y="-1" relative="1" as="geometry">
            <mxPoint x="-30" y="-16" as="offset" />
          </mxGeometry>
        </mxCell>
        <mxCell id="LrwBb2kscuw4VBv3FzU8-72" value="CALL" style="rounded=1;whiteSpace=wrap;html=1;absoluteArcSize=1;arcSize=14;strokeWidth=2;fontSize=10;" vertex="1" parent="WIyWlLk6GJQsqaUBKTNV-1">
          <mxGeometry x="608" y="1230.58" width="80" height="40" as="geometry" />
        </mxCell>
        <mxCell id="LrwBb2kscuw4VBv3FzU8-73" value="Reveal hands, determine the best hand" style="rounded=1;whiteSpace=wrap;html=1;absoluteArcSize=1;arcSize=14;strokeWidth=2;fontSize=10;" vertex="1" parent="WIyWlLk6GJQsqaUBKTNV-1">
          <mxGeometry x="670" y="1341.58" width="80" height="40" as="geometry" />
        </mxCell>
        <mxCell id="LrwBb2kscuw4VBv3FzU8-74" value="Determine Winner" style="text;html=1;align=center;verticalAlign=middle;whiteSpace=wrap;rounded=0;fontSize=9;fontStyle=3" vertex="1" parent="WIyWlLk6GJQsqaUBKTNV-1">
          <mxGeometry x="566" y="1338.58" width="80" height="30" as="geometry" />
        </mxCell>
        <mxCell id="LrwBb2kscuw4VBv3FzU8-75" value="Final Betting Round" style="text;html=1;align=center;verticalAlign=middle;whiteSpace=wrap;rounded=0;fontSize=9;fontStyle=3" vertex="1" parent="WIyWlLk6GJQsqaUBKTNV-1">
          <mxGeometry x="420" y="1136.06" width="80" height="30" as="geometry" />
        </mxCell>
        <mxCell id="LrwBb2kscuw4VBv3FzU8-76" style="edgeStyle=orthogonalEdgeStyle;rounded=0;orthogonalLoop=1;jettySize=auto;html=1;entryX=0.5;entryY=0;entryDx=0;entryDy=0;entryPerimeter=0;" edge="1" parent="WIyWlLk6GJQsqaUBKTNV-1" source="LrwBb2kscuw4VBv3FzU8-51" target="LrwBb2kscuw4VBv3FzU8-65">
          <mxGeometry relative="1" as="geometry" />
        </mxCell>
        <mxCell id="LrwBb2kscuw4VBv3FzU8-77" value="Play another round" style="strokeWidth=2;html=1;shape=mxgraph.flowchart.decision;whiteSpace=wrap;fontSize=9;fontStyle=5" vertex="1" parent="WIyWlLk6GJQsqaUBKTNV-1">
          <mxGeometry x="652" y="1420" width="116" height="50" as="geometry" />
        </mxCell>
        <mxCell id="LrwBb2kscuw4VBv3FzU8-78" style="edgeStyle=orthogonalEdgeStyle;rounded=0;orthogonalLoop=1;jettySize=auto;html=1;exitX=0.5;exitY=1;exitDx=0;exitDy=0;entryX=0.5;entryY=0;entryDx=0;entryDy=0;entryPerimeter=0;" edge="1" parent="WIyWlLk6GJQsqaUBKTNV-1" source="LrwBb2kscuw4VBv3FzU8-73" target="LrwBb2kscuw4VBv3FzU8-77">
          <mxGeometry relative="1" as="geometry" />
        </mxCell>
        <mxCell id="LrwBb2kscuw4VBv3FzU8-79" value="Play Again or Exit" style="text;html=1;align=center;verticalAlign=middle;whiteSpace=wrap;rounded=0;fontSize=9;fontStyle=3" vertex="1" parent="WIyWlLk6GJQsqaUBKTNV-1">
          <mxGeometry x="566" y="1410" width="80" height="30" as="geometry" />
        </mxCell>
        <mxCell id="LrwBb2kscuw4VBv3FzU8-80" style="edgeStyle=orthogonalEdgeStyle;rounded=0;orthogonalLoop=1;jettySize=auto;html=1;exitX=0;exitY=0.5;exitDx=0;exitDy=0;exitPerimeter=0;entryX=0;entryY=0.5;entryDx=0;entryDy=0;entryPerimeter=0;" edge="1" parent="WIyWlLk6GJQsqaUBKTNV-1" source="LrwBb2kscuw4VBv3FzU8-77" target="22gZ5Fdk7y25cB7nW1cR-31">
          <mxGeometry relative="1" as="geometry">
            <Array as="points">
              <mxPoint x="240" y="1445" />
              <mxPoint x="240" y="181" />
            </Array>
          </mxGeometry>
        </mxCell>
        <mxCell id="LrwBb2kscuw4VBv3FzU8-81" value="YES" style="edgeLabel;html=1;align=center;verticalAlign=middle;resizable=0;points=[];" vertex="1" connectable="0" parent="LrwBb2kscuw4VBv3FzU8-80">
          <mxGeometry x="-0.7704" y="-3" relative="1" as="geometry">
            <mxPoint as="offset" />
          </mxGeometry>
        </mxCell>
        <mxCell id="LrwBb2kscuw4VBv3FzU8-85" style="edgeStyle=orthogonalEdgeStyle;rounded=0;orthogonalLoop=1;jettySize=auto;html=1;exitX=0.5;exitY=1;exitDx=0;exitDy=0;exitPerimeter=0;entryX=1;entryY=0.5;entryDx=0;entryDy=0;entryPerimeter=0;" edge="1" parent="WIyWlLk6GJQsqaUBKTNV-1" source="LrwBb2kscuw4VBv3FzU8-77" target="22gZ5Fdk7y25cB7nW1cR-34">
          <mxGeometry relative="1" as="geometry">
            <Array as="points">
              <mxPoint x="710" y="1490" />
              <mxPoint x="200" y="1490" />
              <mxPoint x="200" y="251" />
            </Array>
          </mxGeometry>
        </mxCell>
        <mxCell id="LrwBb2kscuw4VBv3FzU8-86" value="NO" style="edgeLabel;html=1;align=center;verticalAlign=middle;resizable=0;points=[];" vertex="1" connectable="0" parent="LrwBb2kscuw4VBv3FzU8-85">
          <mxGeometry x="-0.6871" y="2" relative="1" as="geometry">
            <mxPoint x="-1" y="-1" as="offset" />
          </mxGeometry>
        </mxCell>
      </root>
    </mxGraphModel>
  </diagram>
</mxfile>
